# xmcd CD database file
#
# Track frame offsets:
#	150
#	2346
#	16985
#	31486
#	46687
#	61843
#	77181
#	92486
#	106778
#	121083
#	136691
#	152301
#	168274
#	184237
#	203672
#	223107
#	238157
#	253152
#	268188
#	283171
#	299101
#
# Disc length: 4196 seconds
#
# Revision: 1
# Processed by: cddbd v1.5.2PL0 Copyright (c) Steve Scherf et al.
# Submitted via: CDex 1.50beta10
#
DISCID=1d106215
DTITLE=Paul Honey - Playalong For Tenor Saxophone
DYEAR=1900
DGENRE=Jazz
TTITLE0=01 - tuning note Bb
TTITLE1=02 - A Night In Tunisia
TTITLE2=03 - A Night In Tunisia - PB
TTITLE3=04 - Bernie's tune
TTITLE4=05 - Bernie's tune - PB
TTITLE5=06 - Fly Me to The Moon
TTITLE6=07 - Fly Me to The Moon - PB
TTITLE7=08 - One Note Samba
TTITLE8=09 - One Note Samba - PB
TTITLE9=10 - Opus One
TTITLE10=11 - Opus One - PB
TTITLE11=12 - Satin dool
TTITLE12=13 - Satin dool - PB
TTITLE13=14 - Slightly Out Of Tune (Desafinado)
TTITLE14=15 - Slightly Out Of Tune (Desafinado) - PB
TTITLE15=16 - Straight No Chaser
TTITLE16=17 - Straight No Chaser - PB
TTITLE17=18 - Take The A Train
TTITLE18=19 - Take The A Train - PB
TTITLE19=20 - Yardbird Suit
TTITLE20=21 - Yardbird Suit - PB
EXTD=
EXTT0=
EXTT1=
EXTT2=
EXTT3=
EXTT4=
EXTT5=
EXTT6=
EXTT7=
EXTT8=
EXTT9=
EXTT10=
EXTT11=
EXTT12=
EXTT13=
EXTT14=
EXTT15=
EXTT16=
EXTT17=
EXTT18=
EXTT19=
EXTT20=
PLAYORDER=
